<mxfile host="app.diagrams.net" modified="2024-05-24T13:55:17.718Z" agent="Mozilla/5.0 (Windows NT 10.0; Win64; x64) AppleWebKit/537.36 (KHTML, like Gecko) Chrome/125.0.0.0 Safari/537.36" etag="qHrg3gN03EPvI24gHxPx" version="24.4.7" type="github">
  <diagram name="Page-1" id="9f46799a-70d6-7492-0946-bef42562c5a5">
    <mxGraphModel dx="1195" dy="622" grid="1" gridSize="10" guides="1" tooltips="1" connect="1" arrows="1" fold="1" page="1" pageScale="1" pageWidth="1100" pageHeight="850" background="none" math="0" shadow="0">
      <root>
        <mxCell id="0" />
        <mxCell id="1" parent="0" />
        <mxCell id="vfqUivKVGqe5_I3qeVHW-2" value="flashcards&lt;div&gt;main.tsx&lt;/div&gt;" style="html=1;whiteSpace=wrap;" vertex="1" parent="1">
          <mxGeometry x="450" y="340" width="110" height="60" as="geometry" />
        </mxCell>
        <mxCell id="vfqUivKVGqe5_I3qeVHW-3" value="app" style="html=1;whiteSpace=wrap;" vertex="1" parent="1">
          <mxGeometry x="20" y="470" width="85" height="30" as="geometry" />
        </mxCell>
        <mxCell id="vfqUivKVGqe5_I3qeVHW-4" value="assets" style="html=1;whiteSpace=wrap;" vertex="1" parent="1">
          <mxGeometry x="10" y="330" width="85" height="30" as="geometry" />
        </mxCell>
        <mxCell id="vfqUivKVGqe5_I3qeVHW-5" value="pages" style="html=1;whiteSpace=wrap;" vertex="1" parent="1">
          <mxGeometry x="10" y="390" width="85" height="30" as="geometry" />
        </mxCell>
        <mxCell id="vfqUivKVGqe5_I3qeVHW-6" value="features" style="html=1;whiteSpace=wrap;" vertex="1" parent="1">
          <mxGeometry x="580" y="470" width="85" height="30" as="geometry" />
        </mxCell>
        <mxCell id="vfqUivKVGqe5_I3qeVHW-8" value="" style="endArrow=classic;html=1;rounded=0;entryX=1;entryY=0.5;entryDx=0;entryDy=0;exitX=0;exitY=0.5;exitDx=0;exitDy=0;exitPerimeter=0;" edge="1" parent="1" source="vfqUivKVGqe5_I3qeVHW-2" target="vfqUivKVGqe5_I3qeVHW-3">
          <mxGeometry width="50" height="50" relative="1" as="geometry">
            <mxPoint x="360" y="480" as="sourcePoint" />
            <mxPoint x="410" y="430" as="targetPoint" />
          </mxGeometry>
        </mxCell>
        <mxCell id="vfqUivKVGqe5_I3qeVHW-9" value="" style="endArrow=classic;html=1;rounded=0;entryX=1;entryY=0.5;entryDx=0;entryDy=0;exitX=0;exitY=0.5;exitDx=0;exitDy=0;" edge="1" parent="1" source="vfqUivKVGqe5_I3qeVHW-2" target="vfqUivKVGqe5_I3qeVHW-4">
          <mxGeometry width="50" height="50" relative="1" as="geometry">
            <mxPoint x="450" y="390" as="sourcePoint" />
            <mxPoint x="335" y="395" as="targetPoint" />
          </mxGeometry>
        </mxCell>
        <mxCell id="vfqUivKVGqe5_I3qeVHW-10" value="" style="endArrow=classic;html=1;rounded=0;entryX=1;entryY=0.5;entryDx=0;entryDy=0;exitX=0;exitY=0.5;exitDx=0;exitDy=0;" edge="1" parent="1" source="vfqUivKVGqe5_I3qeVHW-2" target="vfqUivKVGqe5_I3qeVHW-5">
          <mxGeometry width="50" height="50" relative="1" as="geometry">
            <mxPoint x="450" y="390" as="sourcePoint" />
            <mxPoint x="345" y="405" as="targetPoint" />
          </mxGeometry>
        </mxCell>
        <mxCell id="vfqUivKVGqe5_I3qeVHW-11" value="services" style="html=1;whiteSpace=wrap;" vertex="1" parent="1">
          <mxGeometry x="160" y="240" width="85" height="30" as="geometry" />
        </mxCell>
        <mxCell id="vfqUivKVGqe5_I3qeVHW-12" value="components" style="html=1;whiteSpace=wrap;" vertex="1" parent="1">
          <mxGeometry x="360" y="550" width="85" height="30" as="geometry" />
        </mxCell>
        <mxCell id="vfqUivKVGqe5_I3qeVHW-13" value="" style="endArrow=classic;html=1;rounded=0;entryX=0.447;entryY=0.033;entryDx=0;entryDy=0;entryPerimeter=0;" edge="1" parent="1" target="vfqUivKVGqe5_I3qeVHW-12">
          <mxGeometry width="50" height="50" relative="1" as="geometry">
            <mxPoint x="460" y="400" as="sourcePoint" />
            <mxPoint x="335" y="535" as="targetPoint" />
          </mxGeometry>
        </mxCell>
        <mxCell id="vfqUivKVGqe5_I3qeVHW-14" value="" style="endArrow=classic;html=1;rounded=0;entryX=0.5;entryY=0;entryDx=0;entryDy=0;exitX=0.4;exitY=1.011;exitDx=0;exitDy=0;exitPerimeter=0;" edge="1" parent="1" source="vfqUivKVGqe5_I3qeVHW-2" target="vfqUivKVGqe5_I3qeVHW-6">
          <mxGeometry width="50" height="50" relative="1" as="geometry">
            <mxPoint x="470" y="410" as="sourcePoint" />
            <mxPoint x="458" y="551" as="targetPoint" />
          </mxGeometry>
        </mxCell>
        <mxCell id="vfqUivKVGqe5_I3qeVHW-15" value="" style="endArrow=classic;html=1;rounded=0;entryX=0.5;entryY=1;entryDx=0;entryDy=0;exitX=0;exitY=0.5;exitDx=0;exitDy=0;" edge="1" parent="1" source="vfqUivKVGqe5_I3qeVHW-2" target="vfqUivKVGqe5_I3qeVHW-11">
          <mxGeometry width="50" height="50" relative="1" as="geometry">
            <mxPoint x="535" y="380" as="sourcePoint" />
            <mxPoint x="674" y="450" as="targetPoint" />
          </mxGeometry>
        </mxCell>
        <mxCell id="vfqUivKVGqe5_I3qeVHW-16" value="services" style="html=1;whiteSpace=wrap;" vertex="1" parent="1">
          <mxGeometry x="595" y="250" width="85" height="30" as="geometry" />
        </mxCell>
        <mxCell id="vfqUivKVGqe5_I3qeVHW-17" value="" style="endArrow=classic;html=1;rounded=0;entryX=0.5;entryY=1;entryDx=0;entryDy=0;exitX=0.5;exitY=0;exitDx=0;exitDy=0;" edge="1" parent="1" source="vfqUivKVGqe5_I3qeVHW-2" target="vfqUivKVGqe5_I3qeVHW-16">
          <mxGeometry width="50" height="50" relative="1" as="geometry">
            <mxPoint x="530" y="302.5" as="sourcePoint" />
            <mxPoint x="675" y="307.5" as="targetPoint" />
            <Array as="points">
              <mxPoint x="595" y="302.5" />
            </Array>
          </mxGeometry>
        </mxCell>
        <mxCell id="vfqUivKVGqe5_I3qeVHW-18" value="styles" style="html=1;whiteSpace=wrap;" vertex="1" parent="1">
          <mxGeometry x="20" y="270" width="85" height="30" as="geometry" />
        </mxCell>
        <mxCell id="vfqUivKVGqe5_I3qeVHW-19" value="" style="endArrow=classic;html=1;rounded=0;entryX=1;entryY=0.5;entryDx=0;entryDy=0;exitX=0;exitY=0.5;exitDx=0;exitDy=0;" edge="1" parent="1" source="vfqUivKVGqe5_I3qeVHW-2" target="vfqUivKVGqe5_I3qeVHW-18">
          <mxGeometry width="50" height="50" relative="1" as="geometry">
            <mxPoint x="450" y="316" as="sourcePoint" />
            <mxPoint x="335" y="314" as="targetPoint" />
          </mxGeometry>
        </mxCell>
        <mxCell id="vfqUivKVGqe5_I3qeVHW-21" value="&lt;div style=&quot;&quot;&gt;&lt;pre style=&quot;&quot;&gt;&lt;font face=&quot;Helvetica&quot;&gt;base-api.ts&lt;/font&gt;&lt;/pre&gt;&lt;/div&gt;" style="html=1;whiteSpace=wrap;labelBackgroundColor=none;fontColor=#000000;" vertex="1" parent="1">
          <mxGeometry x="130" y="130" width="85" height="30" as="geometry" />
        </mxCell>
        <mxCell id="vfqUivKVGqe5_I3qeVHW-22" value="&lt;div style=&quot;line-height: 160%;&quot;&gt;&lt;pre style=&quot;line-height: 160%;&quot;&gt;&lt;font face=&quot;Helvetica&quot;&gt;base-query-with-reauth.ts&lt;/font&gt;&lt;/pre&gt;&lt;/div&gt;" style="html=1;whiteSpace=wrap;labelBackgroundColor=none;fontColor=#000000;" vertex="1" parent="1">
          <mxGeometry x="290" y="130" width="170" height="30" as="geometry" />
        </mxCell>
        <mxCell id="vfqUivKVGqe5_I3qeVHW-23" value="" style="endArrow=classic;html=1;rounded=0;exitX=0.547;exitY=-0.071;exitDx=0;exitDy=0;exitPerimeter=0;entryX=0.503;entryY=1.119;entryDx=0;entryDy=0;entryPerimeter=0;" edge="1" parent="1" source="vfqUivKVGqe5_I3qeVHW-11" target="vfqUivKVGqe5_I3qeVHW-21">
          <mxGeometry width="50" height="50" relative="1" as="geometry">
            <mxPoint x="217" y="190" as="sourcePoint" />
            <mxPoint x="130" y="200" as="targetPoint" />
          </mxGeometry>
        </mxCell>
        <mxCell id="vfqUivKVGqe5_I3qeVHW-24" value="" style="endArrow=classic;html=1;rounded=0;entryX=0.473;entryY=1.008;entryDx=0;entryDy=0;entryPerimeter=0;exitX=0.5;exitY=0;exitDx=0;exitDy=0;" edge="1" parent="1" source="vfqUivKVGqe5_I3qeVHW-11" target="vfqUivKVGqe5_I3qeVHW-22">
          <mxGeometry width="50" height="50" relative="1" as="geometry">
            <mxPoint x="253.66500000000005" y="219.04" as="sourcePoint" />
            <mxPoint x="359.5" y="170" as="targetPoint" />
            <Array as="points" />
          </mxGeometry>
        </mxCell>
      </root>
    </mxGraphModel>
  </diagram>
</mxfile>
